# xmcd
# Copyright (C) 1995-1998 Ti Kan
#
# Track frame offsets:
#       150
#       68708
#       139130
#       205370
#
# Disc length: 3775 seconds
#
# Revision: 0
# Processed by: cddbd v1.5.2PL0 Copyright (c) Steve Scherf et al.
# Submitted via: CD-Transfer v1.0
#
DISCID=390ebd04
DTITLE=Friday Night Life Mixed By Dj U.r.s. - 
DYEAR=1900
DGENRE=
TTITLE0=Rockys
TTITLE1=Groovy
TTITLE2=Rnb
TTITLE3=House
EXTD=
EXTT0=
EXTT1=
EXTT2=
EXTT3=
PLAYORDER=
